<svg width="94" height="44" viewBox="0 0 94 44" fill="none" xmlns="http://www.w3.org/2000/svg">
<path fill-rule="evenodd" clip-rule="evenodd" d="M24.5172 36.0043C24.5172 36.0043 24.7127 36.8644 25.1948 36.5403C25.6769 36.2166 25.8724 35.7309 26.3545 35.7309C26.8366 35.7309 28.8464 35.3531 29.3285 35.7309C29.8106 36.1088 29.8589 35.7846 30.1 35.7846C30.341 35.7846 31.0492 35.9103 31.0492 35.9103C31.6655 35.8461 31.5399 34.8663 31.0944 34.5796C30.4514 34.076 29.5857 33.7524 28.9428 33.2482C28.8784 32.7625 28.8142 32.2768 28.75 31.7911C28.9267 31.5396 29.1035 31.2875 29.2804 31.0355C29.2804 30.2263 29.2804 29.4167 29.2804 28.6072C29.1839 28.3913 29.0874 28.1754 28.991 27.9595C28.9588 27.348 28.9267 26.7364 28.8946 26.1247C28.8142 26.0167 28.7338 25.9088 28.6535 25.8009C28.6535 25.5671 28.6535 25.3332 28.6535 25.0993C28.8142 24.8655 29.1398 24.6317 29.3007 24.3978C29.3488 23.948 29.1333 23.6306 29.1816 23.1808C29.069 22.6052 29.0553 21.8973 28.9428 21.3216C28.9428 20.62 28.9428 19.9184 28.9428 19.2169C29.4092 19.0779 29.5222 18.8712 29.5555 18.662C29.5983 18.3929 29.4665 18.076 29.3285 17.4359C29.2642 14.072 29.233 10.5757 29.1687 7.2117C29.4252 6.80967 29.7326 6.6017 29.7391 6.30385C29.7442 6.07195 29.4952 5.87862 29.1839 5.61711C29.1839 5.38326 29.1839 5.14953 29.1839 4.91551C29.1839 4.91551 29.7143 3.83612 30.1481 3.83612C30.5821 3.83612 30.8714 3.51239 30.8714 3.18861C31.2674 2.40193 30.4375 2.32509 30.4375 2.32509C29.5191 2.30603 28.4788 2.35304 27.5829 2.33415C26.7926 2.31732 26.1439 2.23409 25.3749 2.21715C25.0374 2.23526 24.6999 2.25309 24.3623 2.27109C23.5328 2.52299 23.7072 2.97343 24.0249 3.22506C24.4105 3.46785 24.7397 3.74596 25.182 3.75524C25.7218 3.76647 26.1515 3.94337 26.3392 4.48373C26.3875 6.64244 26.4356 8.80121 26.4838 10.9599C26.4999 12.5519 26.549 14.1441 26.5649 15.7359C26.581 17.3278 26.5644 18.92 26.5802 20.512C26.6124 22.383 26.6445 24.2538 26.6767 26.1247C26.6767 26.1247 26.5802 26.8263 26.4356 26.9882C26.291 27.1501 26.3392 28.5532 26.3392 28.5532C26.8732 29.0184 26.7596 28.9533 26.3875 29.5786C26.3552 30.9639 26.323 32.3489 26.291 33.7339C26.1624 33.986 26.0338 34.2381 25.9052 34.4896C25.9052 34.4896 24.5172 35.3028 24.5172 36.0043ZM1.16731 42.7129C0.452353 42.5659 0.318298 42.22 0.572248 42.016C0.724643 41.8936 1.13203 41.898 1.31517 41.8125C1.58319 41.6862 1.85695 41.5208 2.01831 41.3212C2.29408 40.9797 2.12679 40.1894 2.45588 39.5456C2.77212 36.8292 2.86686 33.2303 2.55079 32.0197C2.36104 30.1539 2.55582 23.9564 2.55582 23.1709C2.76581 22.7936 2.84461 22.7627 2.84623 22.1015C2.84679 21.843 3.02067 21.4408 2.83545 21.1212C2.56678 20.8144 2.64798 19.6152 2.62696 18.9391C2.59589 17.9329 2.66973 17.9411 2.94975 17.0294C3.05516 16.6865 3.09087 16.2784 2.94975 15.9495C2.7216 15.418 2.39172 16.0321 2.41369 14.9647C2.46751 12.3744 2.5641 9.76836 2.49597 7.17912C2.51072 6.9484 2.89497 6.90626 2.9702 6.68817C3.06583 6.41089 3.09752 6.06794 2.9702 5.80458C2.8981 5.65529 2.49456 5.84946 2.37618 5.73633C1.65271 5.04506 0.743617 4.61084 0.324395 3.68851C0.161901 3.3308 0.423975 2.53921 0.768453 2.36812C1.33914 2.08458 2.40066 2.37768 3.02509 2.26998C3.36088 2.21213 3.57339 2.01232 3.91354 1.99734C6.56667 1.88047 9.29682 1.61525 11.9404 1.87716C12.3636 1.91908 12.5031 2.66563 12.8888 2.85097C13.4175 3.10505 14.1907 3.05061 14.596 3.48422C15.2456 4.17895 15.7117 4.75129 15.7941 5.71436C15.8953 6.89625 16.0984 8.23492 16.0884 9.14277C16.0801 9.90301 15.8516 10.5892 15.5127 11.2431C15.0484 12.1392 14.4958 12.9756 13.8974 13.8608C13.5524 14.371 12.9385 14.8447 12.794 15.4265C12.6447 16.028 14.1986 15.5864 14.5165 16.113C14.8221 16.6193 14.2558 17.2125 14.4266 17.783C14.5791 18.2918 15.4602 18.3413 15.5648 18.8629C15.8346 20.2091 15.2392 21.6327 15.4699 22.9865C15.5437 23.42 16.2315 23.4355 16.2984 23.8703C16.3795 24.8097 16.3505 25.8041 16.3579 26.8022C16.3655 27.8645 16.4067 28.9316 16.3931 29.9414C16.367 30.3221 15.8686 30.5448 15.8241 30.9231C15.7054 31.9309 16.0517 33.0688 15.8292 34.057C15.5947 35.0977 14.758 35.8326 14.4316 36.8465C14.1489 37.7246 14.2291 39.0068 13.7729 39.5573C13.0183 39.7943 12.0791 40.3252 11.4848 40.7679C10.6163 41.414 10.061 42.1546 9.79404 42.178C9.45477 42.4799 8.73706 42.2781 8.31642 42.4352C7.92853 42.5794 7.89197 42.9046 7.48296 42.8515C7.15996 42.8102 7.26063 42.5419 7.00872 42.329C6.86206 42.2043 6.58004 42.1965 6.43969 42.329C5.58835 43.0142 6.22334 42.8348 5.25663 42.7454C4.27461 42.6548 2.36276 42.9578 1.16731 42.7129ZM6.66873 38.772C6.89006 38.3467 7.1114 37.9213 7.33279 37.4954C7.26941 36.0886 7.20625 34.6813 7.14298 33.2739C7.33279 33.0118 7.52242 32.7502 7.71206 32.4881C7.71206 31.0707 7.71206 29.6533 7.71206 28.2357C7.71206 27.5913 7.62224 26.9469 7.62224 26.3027C6.95646 25.752 7.27482 25.76 7.81188 25.1246C7.81188 24.5028 7.96184 24.0012 7.96184 23.3793C7.89846 22.8558 7.8353 22.332 7.77203 21.8084C7.86699 21.5467 7.96184 21.2848 8.05663 21.023C8.05663 20.2355 8.14645 19.5983 8.14645 18.8107C8.14645 18.0713 8.16786 17.8235 8.30306 17.8699C8.43827 17.9162 8.68742 18.2568 9.14233 18.6942C9.48796 19.0266 9.83382 19.3591 10.1796 19.6914C10.8182 20.3051 11.4402 20.361 11.1813 21.3666C10.9394 22.3075 11.6347 22.5685 11.4186 23.5021C11.2535 24.2152 11.0366 24.6512 11.0846 25.0933C11.1133 25.3585 11.2376 25.626 11.5252 25.9568C11.7911 26.2624 11.8797 26.2433 11.7208 26.6195C11.4744 27.2024 11.2643 27.5423 11.2397 27.8922C11.2079 28.3419 11.4529 28.5486 11.6677 29.3429C11.8436 29.9926 11.8271 30.4234 11.6644 31.0751C11.4717 31.8481 11.2791 32.6211 11.0864 33.3941C11.0647 33.9787 11.0114 34.5639 10.9699 35.1491C10.9071 36.0406 10.7882 36.0635 10.1683 36.7007C9.60517 37.2797 8.88037 37.7749 8.33704 38.2925C7.73643 38.5216 7.2694 38.5428 6.66873 38.772ZM8.11979 13.9645C8.60096 13.9787 8.81615 14.0263 8.96533 13.9649C9.11456 13.9033 9.19788 13.7325 9.41553 13.3104C9.69661 12.7646 10.1129 12.0824 10.4582 12.0311C11.04 11.9448 11.3435 11.8582 11.3435 11.8582C11.3435 11.8582 11.6479 11.8005 11.5438 11.0503C11.4395 10.3001 11.2249 9.57861 11.4141 9.37667C11.6031 9.17473 11.643 8.59766 11.4418 8.36677C11.2407 8.13605 11.0495 7.9051 11.3744 7.58775C11.6993 7.27034 11.9233 6.73897 11.1469 6.8256C10.3706 6.91218 10.3802 6.57616 10.2905 6.34521C10.2007 6.11443 9.35388 6.16714 8.91111 6.14171C8.46878 6.22828 8.09683 6.19939 8.10957 6.661C8.12248 7.12261 8.04809 9.34789 8.05446 9.57872C8.06083 9.80956 8.11979 13.9645 8.11979 13.9645ZM32.6774 34.2202C32.6428 34.4164 32.1925 34.4175 32.2271 34.6142C32.2755 34.8887 32.2935 35.3173 32.57 35.3531C33.372 35.4571 34.4715 35.1379 35.2668 35.2849C35.5809 35.343 35.598 35.8785 35.886 36.0165C36.1225 36.0126 36.4867 36.021 36.7867 36.0165C37.0176 35.8964 36.9555 35.4727 37.1807 35.3414C37.458 35.1793 37.8362 35.1178 38.1376 35.2285C38.2999 35.2883 38.0785 35.7147 38.2502 35.7354C39.6532 35.6823 40.9066 35.836 42.234 35.7354C42.4991 35.6918 42.229 35.3123 42.4462 35.1547C42.6931 34.9753 43.3052 35.2883 43.3468 34.9859C43.5624 33.4226 43.2259 31.6771 43.3727 30.1063C43.4197 29.6033 43.9022 29.3052 44.0102 28.8116C44.046 28.6472 44.2431 28.6443 44.2588 28.4824C44.3134 27.9186 44.3034 27.2349 44.1608 26.6798C43.9716 26.4859 43.3935 26.4153 43.2038 26.5036C42.9902 26.661 43.1845 27.2196 43.041 27.4427C42.97 27.5532 42.7173 27.332 42.6469 27.4427C42.5778 27.5516 42.6672 27.7302 42.6989 27.8714C42.7179 27.9561 42.7161 28.0274 42.6469 28.0619C42.2778 28.2465 41.7342 27.8086 41.4085 28.0619C41.0889 28.3105 41.4478 28.7916 41.1774 29.093C40.739 29.5816 39.7997 29.8678 39.3631 30.3579C38.8439 30.9405 38.8902 31.5351 38.2936 32.0382C37.8266 32.4317 37.0331 32.473 36.4672 32.7027C35.8111 32.9693 35.4979 33.4606 34.8165 33.6523C34.6106 33.7105 34.3594 33.3505 34.4225 33.1459C34.933 31.491 35.5964 29.8271 36.1476 28.1851C36.5011 27.1317 36.6671 26.4672 37.0491 25.4235C37.4444 24.3435 37.9608 23.0086 38.6062 22.0567C38.7333 21.8691 39.1574 21.9916 39.2254 21.7752C39.3942 21.2383 39.0784 20.6298 39.2254 20.0865C39.3341 19.6844 39.7575 19.2985 40.1078 19.0732C40.3445 18.9211 40.7223 19.1331 40.8267 18.8718C41.0707 18.262 40.8428 17.6159 40.9964 16.9772C41.1 16.547 41.3955 16.2833 41.5836 15.8825C41.8331 15.3506 41.8149 14.8889 42.0902 14.3698C42.3143 13.9475 42.7859 13.3564 42.9217 12.8978C43.1082 12.2681 42.9553 11.959 43.016 11.3049C43.0323 11.1289 43.2903 11.0314 43.2975 10.8546C43.3849 8.73633 43.497 6.61052 43.3727 4.49385C43.3626 4.32136 42.9752 4.32881 42.9787 4.1561C42.9921 3.50927 43.0706 2.93777 43.035 2.35482C43.0281 2.24091 43.0675 2.14762 42.9536 2.14287C41.191 2.06893 39.4512 2.10907 37.6873 2.12963C36.2426 2.14635 34.7942 2.03054 33.3529 2.12963C33.1348 2.14461 32.9394 2.18211 32.79 2.34157C32.6467 2.49454 32.5755 2.82101 32.5839 3.03027C32.6218 3.97098 32.565 4.99515 32.5839 6.12629C32.5872 6.33588 33.0002 6.21046 33.0714 6.40776C33.2699 6.95729 33.2851 7.57036 33.2404 8.15276C33.2261 8.33988 32.9986 8.59184 33.003 8.77919C33.0934 9.43038 33.1778 9.89059 33.2966 10.517C33.365 10.7592 33.5734 10.9484 33.6344 11.1925C33.7072 11.4842 33.4411 12.0736 33.7409 12.0931C33.8405 12.0995 34.188 12.1576 34.3661 12.0931C34.5952 12.0101 34.2819 11.5902 34.3661 11.3613C34.4258 11.1991 34.7328 11.1942 34.7602 11.0236C34.909 10.0967 34.6504 9.01057 34.7974 8.08322C34.8423 7.80063 35.0042 7.50212 35.2478 7.3515C35.455 7.22322 35.8298 7.54393 35.9796 7.3515C36.1871 7.0845 35.9829 6.77693 36.1112 6.46405C36.2949 6.0163 36.5938 5.60341 36.9555 5.28192C37.2878 4.98653 37.6203 4.63303 38.0623 4.58703C39.0507 4.48435 40.233 4.57651 41.5714 4.51889C41.6969 4.5133 41.7307 4.70624 41.7403 4.83161C41.7876 5.44893 41.9 6.28765 41.7403 6.68923C41.5085 7.27207 40.9841 7.9226 40.4517 8.5279C40.0876 8.94178 39.7194 9.30809 39.4384 9.72297C39.1016 10.2204 39.6048 10.8986 39.4323 11.474C39.2558 12.0625 38.7737 12.6881 38.4001 13.1759C38.0936 13.5761 37.643 13.7809 37.3557 14.1951C36.997 14.7121 36.788 15.2213 36.5615 15.8084C36.3732 16.2965 36.2517 16.8117 36.1675 17.3282C36.101 17.7361 36.2958 18.1972 36.1112 18.5666C35.9759 18.8373 35.6706 18.7873 35.4737 19.0169C35.2008 19.3355 35.0409 19.7439 34.9109 20.1428C34.7568 20.6151 34.7442 20.895 34.5038 21.3296C34.2341 21.8172 33.6926 22.2882 33.4473 22.7884C33.1796 23.334 33.149 23.997 33.0152 24.5898C32.8858 25.163 32.7776 25.7029 32.6592 26.2785C32.5142 26.9829 32.3629 27.6986 32.3777 28.4176C32.3822 28.6363 32.6136 28.7869 32.7155 28.9804C32.8015 29.1439 32.999 29.3118 32.9407 29.4871C32.8609 29.7265 32.4134 29.7438 32.3777 29.9937C32.341 30.2517 32.4066 30.49 32.596 30.6694C32.7607 30.8247 33.097 30.7571 33.2153 30.9505C33.3425 31.159 33.3196 31.4619 33.2153 31.6821C33.1285 31.866 32.8237 31.8213 32.784 32.0203C32.6221 32.8301 32.8208 33.407 32.6774 34.2202ZM81.4835 42.1976C81.3778 41.8623 81.6416 41.7969 81.8171 41.6219C82.0737 41.3659 82.3218 41.1161 82.4236 40.612C82.4621 40.4208 82.6578 40.1117 82.703 39.8054C82.7695 39.3583 82.6678 38.8922 82.546 38.6032C82.3861 38.2248 82.124 38.0275 82.219 37.6665C82.2525 37.4356 82.7746 37.4071 83.1859 37.2244C83.4017 37.1288 83.5867 36.9416 83.6554 36.7655C83.7454 36.5336 83.4458 36.5732 83.2932 36.2787C83.1306 35.9651 83.1066 35.4956 82.9814 35.262C82.7628 34.8551 82.3632 34.309 82.3487 33.8468C82.3095 32.6138 82.6667 31.3691 82.7125 30.1828C82.7511 29.1881 82.9864 28.951 82.9104 27.9317C82.8729 27.4241 82.6002 27.0548 82.3185 26.5366C82.0854 26.1072 81.7791 25.6822 81.6618 25.2771C81.4533 24.5562 81.6629 23.7017 81.5366 22.9621C81.512 22.8171 81.1487 22.6397 81.1353 22.4931C81.0414 21.4777 81.156 20.4379 81.0906 19.4335C81.057 19.2445 80.9039 19.2085 80.886 19.0175C80.8329 18.4545 80.8854 17.9062 80.8838 17.4196C80.8821 16.9901 80.8228 16.6231 80.8228 16.124C80.8228 15.938 80.6686 15.8105 80.6624 15.6245C80.625 14.5263 80.6708 13.3137 80.6563 12.2137C80.6406 11.0428 80.5691 9.98428 80.6624 8.81826C80.6786 8.62169 81.076 8.62643 81.0682 8.42947C81.0313 7.53598 80.9542 7.18063 80.9749 6.28195C80.9771 6.17827 81.1895 5.93732 81.1979 5.83392C81.2599 5.08625 81.3527 4.33786 81.1621 3.69801C81.0246 3.23455 80.677 3.09018 80.2779 2.79122C79.9258 2.52713 79.5328 2.09783 79.207 1.85722C78.79 1.54909 78.5123 1.30126 78.1965 0.839815C78.0064 0.562089 78.32 0.537835 78.6699 0.527607C79.1192 0.514472 79.61 0.553711 80.0376 0.620669C80.1823 0.643305 80.4545 0.892748 80.5914 0.945789C80.9212 1.07367 81.1369 0.90762 81.4745 1.01298C81.7322 1.09352 82.8081 1.65444 83.0976 1.82128C83.4933 2.04921 83.6213 2.38042 84.0344 2.57403C84.1087 2.60885 85.3847 2.97409 85.5328 3.01115C85.8783 3.09739 86.0929 2.84483 86.4383 2.93107C86.8396 3.03111 87.5533 3.23326 88.0038 3.36813C88.2576 3.44403 88.418 3.74396 88.6779 3.79571C89.9382 4.04722 89.713 3.62709 90.7112 4.62515C91.0052 4.91925 91.4909 5.15544 91.71 5.50885C92.0196 6.00757 92.0521 6.61886 92.2488 7.1624C92.4019 7.585 92.744 7.93215 92.825 8.38118C93.0436 9.58962 92.8155 10.8462 92.9636 12.0653C93.0089 12.4376 93.3918 12.8304 93.432 13.2034C93.5846 14.6315 93.6103 16.0416 93.4365 17.4671C93.3778 17.9476 92.9731 18.1431 92.901 18.6217C92.7809 19.4247 93.0207 20.247 92.9636 21.057C92.9368 21.4449 92.7211 21.8498 92.5176 22.1809C92.369 22.422 92.0291 22.5089 91.9201 22.77C91.6334 23.4552 91.7055 24.3921 91.5725 25.1345C91.5312 26.5517 91.5602 27.6511 91.6211 29.0674C91.6642 30.0656 91.7664 30.9617 91.639 31.9527C91.5943 32.2958 91.307 32.4842 91.2556 32.8268C91.1136 33.7736 91.2355 34.7461 91.1438 35.6991C91.1282 35.8612 90.8878 36.049 90.8537 36.2083C90.79 37.0791 90.7291 38.35 90.3496 39.3304C90.0997 39.977 89.4922 40.6287 88.9087 41.0032C88.3436 41.3659 87.7361 41.4442 87.0849 41.6102C86.6736 41.7147 86.213 41.6644 85.8363 41.8595C85.6105 41.9768 85.762 41.9785 85.5557 42.1261C85.4367 42.2105 85.231 42.2178 85.1187 42.1261C84.9599 41.9959 85.0091 41.9427 84.8241 41.855C84.5419 41.7214 84.1741 41.732 83.8874 41.855C83.6806 41.9439 83.756 42.1054 83.5347 42.1484C83.0881 42.2356 82.565 42.3485 82.0821 42.3357C81.7931 42.3284 81.5651 42.4586 81.4835 42.1976ZM85.6748 10.1313C86.3019 10.0981 86.4249 10.0641 86.9832 10.364C87.5606 10.6736 87.6813 10.8778 88.034 11.4372C88.2162 11.6127 88.3979 11.7883 88.5795 11.9637C89.3212 12.6796 89.6711 13.69 89.974 14.6367C90.0237 15.6646 90.2445 17.4653 89.7314 18.3979C89.4754 18.8635 89.3743 19.2228 89.3307 19.6179C89.2094 20.7232 88.8958 20.5506 88.5767 21.3877C88.4901 21.6147 88.5091 21.8972 88.5012 22.4361C88.4733 24.3603 88.4448 26.2847 88.4168 28.2089C88.399 29.4383 88.1676 30.0249 87.6707 31.1601C87.3789 31.7028 87.2258 32.0527 87.2258 32.6686C87.2258 33.3986 87.0766 33.7351 86.7865 34.4002C86.6099 34.8048 86.4327 35.21 86.2561 35.6152C86.0465 36.0953 85.8542 36.2675 85.715 36.2032C85.5759 36.1395 85.4898 35.8382 85.492 35.3721C85.5043 33.023 85.5166 30.6744 85.5289 28.3253C85.5557 25.8278 85.5826 23.3303 85.6094 20.833C85.5781 20.2966 85.5982 20.1778 85.2461 19.78C85.2131 18.9716 85.0572 18.6059 84.8012 17.8361C84.4781 17.2292 84.515 16.7864 84.5072 16.0926C84.4871 14.3569 84.4664 12.6209 84.4463 10.8851C84.434 9.82001 84.6749 10.1841 85.6748 10.1313ZM44.7418 39.9938C44.5487 39.0492 44.6838 38.2986 44.7344 37.5882C44.7585 37.4189 45.1002 37.577 45.193 37.434C45.3315 37.2199 45.4566 36.9265 45.3651 36.6884C45.3102 36.5458 45.213 36.7426 45.131 36.6135C45.0177 36.4357 45.0575 36.1484 45.1883 35.983C45.3791 35.741 45.7608 35.8036 45.8912 35.5241C46.069 35.143 45.7639 34.6634 45.8912 34.2627C45.9317 34.1352 46.2611 34.3929 46.2925 34.2627C46.4411 33.6495 46.2563 32.9945 46.3499 32.3707C46.3743 32.2081 46.5178 32.1326 46.5367 31.9694C46.6163 31.2859 46.6577 30.5827 46.5367 29.9052C46.4617 29.4846 46.1218 29.1818 46.0632 28.7586C45.8504 27.2234 45.7861 25.5518 45.9836 24.0145C46.137 22.8211 46.8979 20.9755 47.3448 19.8582C47.6243 19.1592 47.7613 19.3772 48.0126 18.6675C48.0893 18.4505 48.1426 18.1977 48.07 17.9794C47.9794 17.7075 47.6585 17.4997 47.7036 17.2166C47.759 16.8698 48.1855 16.8785 48.2993 16.546C48.4539 16.0941 48.1427 15.564 48.2993 15.1127C48.4835 14.5816 49.1183 14.2767 49.274 13.7366C49.4226 13.2213 49.2633 12.398 49.4088 11.8817C49.6966 10.8616 50.0422 10.2027 50.5354 9.26443C50.8266 8.71044 51.3326 8.24236 51.56 7.65901C51.7792 7.09696 51.7569 6.35286 51.8541 5.88164C51.4958 5.43372 50.6735 6.05887 50.134 5.86409C49.8603 5.76533 49.8613 5.31782 49.5904 5.21112C49.0102 5.17166 48.4554 5.15829 48.0424 5.4681C47.4882 5.8836 47.4838 6.3707 47.2672 7.02832C46.9436 8.01095 47.1903 9.11492 46.7863 10.0671C46.6266 10.4436 45.9749 10.5495 45.6619 10.8125C45.4963 10.9515 45.4193 11.0965 45.2032 11.0965C44.9869 11.0965 44.7984 11.0218 44.7445 10.8125C44.6347 10.387 44.7659 9.93285 44.7445 9.49376C44.7276 9.14813 44.5425 8.79657 44.6298 8.46172C44.6753 8.28729 45.0746 8.35485 45.0885 8.17505C45.2599 6.20509 45.0243 4.24781 45.0544 2.36538C45.0649 1.70446 45.2403 1.80244 45.891 1.79585C46.9868 1.78456 48.7237 1.79304 49.9834 1.78667C52.1934 1.77561 54.4089 1.69312 56.6127 1.75348C56.9408 1.77723 57.3678 1.89902 57.3908 2.22699C57.4371 2.89021 56.9928 3.52971 56.6854 4.11909C56.5228 4.43058 56.1595 4.6342 56.0399 4.96424C55.8364 5.52366 56.0572 6.18653 55.8426 6.74165C55.7112 7.08231 55.0433 7.14531 54.9153 7.48703C54.7337 7.97044 55.0472 8.55466 54.8577 9.03505C54.7638 9.2736 54.2552 9.13734 54.1697 9.37907C53.8813 10.1972 54.0507 11.1213 53.826 11.9592C53.7013 12.4217 53.3509 12.746 53.2877 13.2206C53.1156 14.5088 53.3995 15.8247 53.2877 17.1194C53.2631 17.4005 52.9664 17.5944 52.8859 17.8648C52.697 18.5006 52.5779 19.1876 52.3599 19.8142C52.266 20.0848 51.9173 20.2252 51.844 20.5022C51.7364 20.9087 52.0061 21.3758 51.844 21.7636C51.6399 22.2512 50.9216 22.4506 50.812 22.9677C50.5024 24.4269 50.9925 25.9656 50.7647 27.4398C50.6628 28.0995 50.0813 28.6179 49.962 29.2745C49.8083 30.1206 50.0731 31.121 49.8622 31.9543C49.6587 32.7592 49.0754 33.4567 48.7829 34.233C48.7144 34.9949 47.8016 35.694 48.2993 36.2697C48.8997 36.3491 49.896 36.4715 50.5927 36.1546C50.9134 36.0093 50.542 35.3363 50.8221 35.1228C51.6782 34.4689 52.6606 34.233 53.6214 33.7468C54.1708 33.4684 54.8616 33.203 55.3518 32.8296C55.6005 32.6396 55.6291 32.1885 55.9247 32.084C56.103 32.0208 56.1399 32.4534 56.326 32.4853C56.9665 32.5943 57.5221 32.3204 58.1509 32.4853C58.4024 32.5513 58.3946 32.8894 58.46 33.1409C58.5186 33.3661 58.6204 33.6087 58.4952 33.8038C58.4197 33.9212 58.1464 33.7904 58.0933 33.9189C57.9843 34.1839 58.0268 34.5002 58.0933 34.7786C58.1458 34.9954 58.3443 35.1301 58.3627 35.352C58.4611 36.514 58.4935 37.6911 58.3627 38.8497C58.3353 39.0928 58.1973 39.3477 57.9541 39.3728C56.3003 39.2968 54.7717 39.4181 53.1156 39.4232C52.9451 39.4081 53.0429 39.1062 52.8859 39.0392C52.4589 38.8559 51.6888 38.8307 51.2356 38.9347C50.7084 39.0554 50.6643 39.4891 50.134 39.5947C49.1784 39.7859 48.0738 39.5986 47.1101 39.7445C46.7695 39.7959 46.5094 40.0849 46.1752 40.1682C45.7117 40.2839 44.9807 40.4074 44.7418 39.9938ZM19.2025 42.6867C18.4876 42.9376 17.6534 42.6872 16.8956 42.7034C16.6621 42.7085 16.2819 42.8918 16.0575 42.8258C15.8126 42.7543 15.4267 42.2686 15.5798 42.064C16.1779 41.2665 17.357 41.167 17.903 40.3336C18.2242 39.8434 17.9234 39.1834 18.0614 38.6138C18.1037 38.4389 18.4103 38.4551 18.5009 38.2997C18.5746 38.1734 18.5962 37.9716 18.5009 37.8604C18.2832 37.6061 18.1453 38.1393 18.0594 37.3781C17.9825 36.6973 17.9663 36.0059 18.0295 35.3257C18.0691 34.8925 18.384 34.9842 18.4436 34.7556C18.5544 34.3303 18.3238 34.0151 18.438 33.5903C18.4892 33.3997 18.8425 33.4477 18.9403 33.2762C19.0336 33.113 19.0447 32.8682 18.9403 32.7111C18.7264 32.3903 18.1451 32.3953 18.0803 32.0152C17.9611 31.316 18.0249 30.5654 18.0372 29.8717C18.0504 29.1329 17.9996 28.3919 18.0613 27.6391C18.0726 27.4995 18.3888 27.5054 18.438 27.3741C18.5334 27.1195 18.473 26.8276 18.438 26.5578C18.4099 26.3414 18.4764 25.8986 18.4598 25.681C18.4344 25.3466 18.2907 25.2224 18.4461 24.9253C18.5545 24.7182 18.9078 24.8429 18.9403 24.6113C19.1121 23.3885 18.7454 22.1346 18.8775 20.9067C18.8999 20.6987 19.2275 20.7318 19.2825 20.5299C19.3712 20.2044 19.3985 19.8302 19.2543 19.5253C19.1863 19.3814 18.8653 19.3808 18.8529 19.222C18.7119 17.4277 18.9573 15.7313 18.8147 13.9369C18.8014 13.7689 18.3887 14.0046 18.381 13.2753C18.3725 12.5111 18.3021 11.7987 18.3125 11.2369C18.3204 10.8059 19.2504 10.7943 19.2406 10.3632C19.2256 9.70638 19.3291 8.96508 19.1778 8.29114C19.1291 8.07445 18.8464 8.11028 18.752 7.90901C18.663 7.71999 18.7469 7.53147 18.8283 7.33858C18.926 7.10646 19.1915 6.95996 19.2543 6.71599C19.3692 6.27031 19.3577 5.78333 19.2543 5.33463C19.2204 5.1878 18.967 5.04434 18.8966 4.91109C18.7661 4.6645 18.8251 4.44685 18.6509 4.22887C18.5305 4.07846 18.175 4.17086 18.0285 4.04583C17.6515 3.7239 17.4342 3.36595 17.118 3.07274C16.8207 2.79736 16.4201 2.58984 16.1911 2.1844C16.044 1.92395 16.2154 1.4734 16.4532 1.29153C16.6359 1.15191 16.922 1.18349 17.1249 1.29153C17.2898 1.3795 17.2865 1.72989 17.4715 1.75554C18.2809 1.86828 19.0841 1.51203 19.8822 1.68742C20.23 1.76394 20.2486 2.20336 20.5729 2.35052C20.7898 2.44906 21.1808 2.25858 21.3782 2.39193C21.668 2.58772 21.9138 3.00427 22.1422 3.2369C22.4358 3.53597 22.6889 3.66911 22.8389 4.0926C23.0281 4.62732 22.9452 5.17596 22.9369 5.73214C22.9296 6.22287 23.0094 6.71985 22.9644 7.21835C22.9493 7.38602 22.6272 7.30711 22.5822 7.46948C22.5032 7.75453 22.5597 8.07361 22.7078 8.32943C22.8155 8.51572 23.1072 8.42087 23.1774 8.62421C23.341 9.0994 23.3619 9.6819 23.2401 10.1695C23.1949 10.351 22.8445 10.2341 22.8334 10.4207C22.6923 12.7817 22.6571 15.1631 22.8961 17.516C22.9367 17.9159 23.5689 18.0583 23.6114 18.4579C23.8484 20.6849 23.6327 22.939 23.5405 25.1764C23.5275 25.4947 23.3698 25.8947 23.2401 26.1321C23.0951 26.3976 23.1853 26.6628 23.1907 26.9557C23.1978 27.3324 23.1527 27.7431 23.2101 28.1276C23.2428 28.3472 23.6896 28.5562 23.6742 28.7778C23.6319 29.3882 23.7187 29.6767 23.756 30.2785C23.774 30.5682 23.2464 30.7493 23.0791 30.9863C22.9587 31.1568 22.8855 31.4871 22.9835 31.6715C23.076 31.8453 23.2422 31.757 23.2948 31.9471C23.3692 32.2159 23.3755 32.4428 23.2401 32.6871C23.1528 32.8441 22.8311 32.8234 22.8006 33.0006C22.7151 33.4975 22.9972 34.0089 22.9262 34.508C22.905 34.6573 22.5717 34.6097 22.5494 34.759C22.4378 35.504 22.6757 36.2764 22.5494 37.0192C22.5018 37.2998 22.0672 37.4261 22.0471 37.7101C22.0358 37.8688 22.4117 37.7581 22.4867 37.8984C22.6052 38.1209 22.3077 38.5814 22.5494 38.6519C23.3528 38.8872 24.347 38.8262 25.1566 38.6138C25.6152 38.4931 25.8092 37.8503 26.2814 37.8056C26.8502 37.752 27.2699 38.1276 27.8321 38.2282C28.5734 38.3618 29.3843 38.3858 30.1116 38.1902C30.5408 38.0745 30.7901 37.619 31.2309 37.5603C33.1391 37.3037 34.91 37.4613 36.8354 37.4513C38.656 37.4412 40.9851 37.3495 42.3366 37.4971C43.1075 37.5228 42.2716 40.2498 42.5496 41.6901C42.6101 42.0037 42.878 42.1792 43.0389 42.4692C43.2957 42.932 43.3952 43.1673 42.7286 43.1645C41.4745 43.1584 40.2056 43.2551 38.845 43.1975C38.5776 43.1864 38.5905 42.671 38.3426 42.5693C38.0709 42.4581 37.7489 42.7012 37.4635 42.6324C37.036 42.529 36.5541 42.1194 36.1177 42.0674C34.954 41.9277 33.7813 42.2194 32.6206 42.059C32.3571 42.0227 32.3208 41.5129 32.0555 41.4934C29.342 41.295 26.7419 41.58 24.0258 41.4319C23.4439 41.4001 23.3909 41.1972 23.0216 41.0899C22.4991 40.9389 21.5646 40.8786 21.0724 41.1094C20.1551 41.5387 20.1582 42.3508 19.2025 42.6867ZM51.867 32.0773C51.3001 32.0605 51.2624 31.15 51.3074 30.5917C51.3535 30.0205 52.0995 30.0504 52.3655 29.5431C52.5595 29.1737 52.2688 28.5243 52.4902 28.1704C52.7283 27.7894 53.3738 27.8035 53.6119 27.4225C53.7483 27.2047 53.5448 26.7871 53.551 26.5303C53.5661 25.9224 53.7025 25.4745 53.6745 24.8671C53.66 24.5512 53.5286 23.9805 53.5884 23.6699C53.6706 23.2457 53.9232 23.3487 54.0484 22.935C54.2044 22.4176 53.945 21.8289 54.1105 21.3146C54.1764 21.1111 54.7096 21.2132 54.6716 21.0029C54.6252 20.747 54.1585 20.8847 54.1121 20.6289C53.9707 19.85 53.9629 18.9335 54.1731 18.1703C54.3044 17.693 54.846 17.3277 54.9835 16.8518C55.1271 16.353 54.8231 15.7875 54.9835 15.2936C55.0919 14.9583 55.6458 14.8875 55.7313 14.5457C55.9325 13.7394 55.7531 12.7503 55.9627 11.9462C56.0728 11.5242 56.293 11.0459 56.563 10.7814C56.7251 10.6226 56.871 10.5072 56.947 10.257C57.0509 9.91429 56.7955 9.62606 56.8542 9.27266C56.9062 8.96 57.1448 8.7593 57.2963 8.48124C57.488 8.13012 57.5679 7.68528 57.7518 7.33048C58.0201 6.81175 58.3812 6.37779 58.5734 5.82592C58.7171 5.41444 58.4085 4.74329 58.5924 4.34786C58.8529 3.78793 59.5258 3.80174 59.7824 3.23991C59.9897 2.78607 59.627 2.19289 59.845 1.74408C60.0031 1.41712 60.3603 1.27276 60.723 1.25834C60.9891 1.24777 61.3121 1.43187 61.4027 1.68171C61.581 2.17126 61.42 2.75952 61.6218 3.23991C61.9756 4.08472 62.5893 4.58266 62.9296 5.43317C63.1068 5.87661 62.9151 6.51428 63.0235 6.97947C63.1711 7.61188 63.2745 8.24967 63.4835 8.86554C63.7429 9.63249 64.1145 10.3764 64.3325 11.1553C64.5254 11.8451 64.5717 12.5936 64.7204 13.2957C64.8294 13.808 65.0284 14.2784 65.205 14.7703C65.2804 14.9815 65.5359 14.9279 65.5968 15.1442C65.7035 15.5263 65.3827 15.9418 65.4722 16.3284C65.5784 16.7904 66.0758 17.2585 66.1574 17.7254C66.2904 18.4825 66.1518 19.2066 66.1702 19.975C66.187 20.6773 66.2613 21.3295 66.3536 22.0028C66.4106 22.4171 66.6397 23.0079 66.6503 23.309C66.6889 24.4307 66.7387 25.5351 66.751 26.6581C66.77 28.2994 66.77 30.054 66.6878 31.6922C66.6783 31.8833 66.4502 31.9812 66.3832 32.1606C66.1289 32.8397 65.9159 33.2152 65.7527 33.9223C65.6666 34.2951 65.6639 34.6964 65.5035 35.044C65.4051 35.2575 64.9663 35.4325 64.892 35.6555C64.7271 36.1518 64.9294 36.6509 64.8931 37.2702C64.8624 37.8034 64.6416 38.1097 64.4197 38.6055C64.2677 38.9442 64.0206 39.4723 63.9267 39.8256C63.8245 40.209 64.0083 40.6293 63.896 41.0099C63.8368 41.2089 63.5651 41.305 63.5221 41.5085C63.4142 42.0165 63.6154 42.571 63.4595 43.0662C63.3717 43.3467 63.3108 43.3059 63.0431 43.4267C62.8531 43.5116 62.3545 43.6083 62.326 43.4015C62.2053 42.5341 62.4495 41.9316 62.312 41.0658C62.1511 40.053 61.7274 39.4371 61.472 38.4434C61.3479 37.961 61.5698 37.0891 61.3406 36.647C60.9281 35.8505 59.6074 35.5286 59.665 34.6338C59.7203 33.768 60.2379 33.2046 60.7649 32.5004C61.1249 32.018 61.3591 31.2305 61.5832 30.6811C61.7481 30.2759 61.8442 29.8014 61.8515 29.4017C61.8627 28.8053 61.7011 28.5457 61.2495 28.1747C60.3061 27.3994 58.7813 26.6905 57.6071 26.1196C57.4349 26.0359 57.2331 26.3644 57.2331 26.5558C57.2331 26.7474 57.4573 26.8963 57.4796 27.0862C57.545 27.6447 57.2069 28.2241 57.4489 28.7314C57.7043 29.2673 58.712 29.4233 58.5628 29.9977C58.4622 30.3824 58.3677 30.5179 58.0413 30.7057C57.8435 30.8197 57.6238 30.8119 57.3924 30.8225C56.6982 30.8544 55.9845 30.6085 55.3138 30.7504C54.5855 30.9047 53.9338 31.2412 53.2609 31.5765C52.8154 31.799 52.3599 32.0924 51.867 32.0773ZM58.0061 23.3637C58 22.8138 57.9866 22.2728 57.9877 21.732C57.9888 21.2545 58.0005 20.7771 58.038 20.294C58.0626 19.98 58.3499 19.7405 58.3868 19.4279C58.4488 18.9111 58.1313 18.2909 58.2761 17.7939C58.3342 17.5922 58.8456 17.7944 58.9613 17.6249C58.9993 17.5693 59.077 17.2458 59.2061 16.9699C59.2838 16.8044 59.4453 16.6559 59.4453 16.5925C59.4453 16.5001 59.4392 15.844 59.5085 15.2755C59.5487 14.9455 59.5996 14.6668 59.6499 14.6646C59.6996 14.6624 59.7499 14.936 59.9249 15.1636C60.1261 15.4254 60.1943 15.6852 60.3703 15.9621C60.4743 16.1255 60.5861 16.318 60.7577 16.3846C60.9762 16.4696 61.2378 16.35 61.4552 16.4378C61.6179 16.5033 61.6575 16.7586 61.804 16.8602C61.9029 16.9291 62.1298 16.798 62.1527 16.9236C62.2561 17.4895 62.1667 18.2469 62.2567 18.8153C62.2785 18.9516 62.5797 18.8882 62.5865 19.0266C62.6323 20.0166 62.6552 21.0081 62.6518 21.9998C62.6491 22.8748 62.6261 23.75 62.5809 24.6243C62.5686 24.8735 61.9102 24.891 61.7263 24.7511C61.3708 24.4802 61.1456 24.1659 60.6805 24.054C60.4866 24.0075 60.4961 23.7003 60.3122 23.6391C59.9042 23.5032 59.3894 23.4693 58.963 23.4693C58.6846 23.4693 58.2828 23.5675 58.0061 23.5326C57.9553 23.5262 58.0067 23.4196 58.0061 23.3637ZM71.2424 6.29972C71.2435 6.86931 71.3045 7.48647 71.3061 8.08289C71.3089 8.85045 71.253 9.53808 71.2558 10.3118C71.2586 11.1357 71.3201 12.0458 71.3201 12.8515C71.3201 13.5065 71.2005 14.7654 71.2514 15.3094C71.3162 16.0088 71.3548 16.13 72.3111 16.13C72.7739 16.13 73.401 15.6553 73.8632 15.1756C74.1795 14.8472 74.132 14.2803 74.2533 14.0351C74.4322 13.6748 74.7379 13.3451 74.8016 12.9267C74.8832 12.3885 74.6865 11.9442 75.0453 11.6C75.1867 11.4638 75.3203 9.91855 75.3203 9.5785C75.3203 9.09381 74.8111 8.37504 74.2259 7.73195C73.8257 7.29191 73.3456 6.89698 73.1411 6.59555C72.766 6.04368 72.4855 5.80155 72.0411 5.70229C71.2296 5.52103 71.2419 5.59554 71.2424 6.29972ZM66.9578 36.6302C66.8063 37.2283 67.2668 37.4725 67.8118 37.8246C68.3556 38.1768 68.9849 38.6373 69.5774 39.123C70.5801 39.9446 71.2625 41.4442 71.9148 42.9209C72.2507 42.5637 72.0137 40.8993 72.2021 39.9022C72.2423 39.6886 72.4726 39.5344 72.4944 39.3181C72.5715 38.5428 72.5905 37.7542 72.4944 36.9812C72.4581 36.6928 72.1792 36.4821 72.1048 36.2021C72.0461 35.9825 72.0601 35.7427 72.1048 35.5202C72.159 35.2486 72.372 35.0172 72.3966 34.7411C72.4704 33.9329 72.5184 33.109 72.3966 32.307C72.3507 32.0041 71.8868 31.833 71.9098 31.5279C71.9293 31.2752 72.4754 31.2937 72.4944 31.0411C72.5475 30.3172 72.2965 29.6186 72.2071 28.8986C72.0048 27.2801 71.8868 25.6521 71.7197 24.0297C71.6599 23.445 71.4263 22.8563 71.5252 22.2769C71.8298 21.4866 72.1082 20.6748 72.4016 20.0373C72.5447 19.8493 72.7336 20.2164 72.8789 20.4025C73.3534 21.0085 73.9839 21.7584 74.1203 22.5157C74.2874 23.4442 73.7844 24.2657 73.8917 25.2032C73.923 25.4767 74.3444 25.4276 74.4417 25.6852C74.9067 26.9156 75.2845 28.1876 75.5131 29.4829C75.7736 30.9589 75.8574 32.4641 75.9027 33.9625C75.9222 34.6142 75.8943 35.2849 75.7076 35.9098C75.4416 36.8024 74.8871 37.5139 74.6121 38.3763C74.3243 39.2784 74.2315 39.5478 75.1861 39.5472C75.564 39.5467 76.005 39.5618 76.2967 39.7076C77.0781 40.0983 77.4006 40.9993 78.1423 41.4604C78.3027 41.5599 78.5123 41.6979 78.733 41.8215C79.7849 42.4106 79.9006 42.0037 80.1197 41.0826C80.4087 39.8647 80.4819 38.7664 80.6691 37.5653C80.7647 36.9561 80.7446 36.3312 80.7714 35.7153C80.8094 34.8372 80.8754 33.9636 80.8301 33.0856C80.8094 32.6759 80.8117 32.2276 80.5428 31.9174C80.341 31.6844 79.7458 31.9225 79.6664 31.6251C79.5574 31.2177 80.1454 30.8784 80.1533 30.4564C79.9923 29.318 79.8447 28.2992 79.8257 27.177C79.8039 25.8541 79.5205 26.52 79.0818 26.0015C78.8169 25.6882 78.7342 25.4119 78.6928 25.0035C78.5704 23.8083 78.7437 22.4856 78.5609 21.2983C78.4793 20.7673 78.2311 20.2436 77.8796 19.8376C77.7521 19.6904 77.5185 19.9094 77.4313 19.7353C77.2854 19.4436 77.7337 19.2439 77.5627 18.9661C77.1653 18.3208 76.3336 17.8282 75.7031 17.408C75.5142 17.2821 75.1817 17.5687 75.0213 17.408C74.8609 17.2474 74.8648 16.7543 75.0213 16.59C76.1441 16.4274 76.722 15.8987 77.2703 15.2658C78.0143 14.4077 78.3781 13.4511 78.7509 12.3786C78.9231 11.8842 78.7029 11.3065 78.7604 10.7864C78.8672 9.82398 79.3719 8.95 79.2037 7.99643C78.9594 6.6097 78.2758 5.367 77.49 4.1987C77.0535 3.55013 76.3755 2.97528 75.669 2.64066C75.0794 2.36142 74.5859 2.59505 73.9599 2.41189C73.2349 2.19984 72.6542 1.79434 71.9148 1.64276C71.3391 1.52472 70.7349 1.76494 70.162 1.63287C69.8043 1.55038 69.7462 1.14827 69.3829 1.09249C69.1325 1.05393 68.8765 1.41678 68.6239 1.43813C66.8773 1.58608 65.4436 1.24777 63.7054 1.47709C63.4461 1.51135 63.5199 1.80059 63.735 1.94938C64.0564 2.17177 64.5449 2.06194 64.9037 2.21715C65.5476 2.49617 66.0428 2.87125 66.5201 3.38568C66.9153 3.81113 67.0762 4.28436 67.4351 4.94372C67.5826 5.21401 68.0068 4.695 68.312 4.65157C68.6971 4.59657 68.9648 4.58623 69.208 4.89023C69.4265 5.16293 68.9743 5.52635 68.7167 5.76159C68.1952 6.2369 67.8403 6.48863 67.3792 6.80419C67.0639 7.02022 66.5056 7.21416 66.2714 7.63614C65.7516 8.57233 66.3681 9.63701 66.5682 10.689C66.6414 11.0727 66.7252 11.4478 66.8124 11.8284C67.0952 13.0658 67.0002 14.0956 67.1724 15.3532C67.2283 15.7597 67.5167 16.1139 67.5619 16.5218C67.6156 17.0066 67.5284 17.3637 67.6011 17.8461C67.6312 18.0514 67.7995 18.2691 67.8543 18.4693C68.0968 19.3598 68.3103 20.4782 68.3411 21.4006C68.4406 24.4177 68.2617 27.3736 68.4137 30.3888C68.4277 30.6632 68.8396 30.7717 68.8961 31.0411C68.9838 31.4586 68.7055 31.9381 68.5652 32.3411C67.989 33.991 67.3132 35.2257 66.9578 36.6302Z" fill="white"/>
</svg>
